<?xml version="1.0" encoding="UTF-8" standalone="no"?>
<!DOCTYPE svg PUBLIC "-//W3C//DTD SVG 1.1//EN"
 "http://www.w3.org/Graphics/SVG/1.1/DTD/svg11.dtd">
<!-- Generated by graphviz version 2.43.0 (0)
 -->
<!-- Title: %3 Pages: 1 -->
<svg width="1365pt" height="548pt"
 viewBox="0.00 0.00 1365.00 548.00" xmlns="http://www.w3.org/2000/svg" xmlns:xlink="http://www.w3.org/1999/xlink">
<g id="graph0" class="graph" transform="scale(1 1) rotate(0) translate(4 544)">
<title>%3</title>
<polygon fill="white" stroke="transparent" points="-4,4 -4,-544 1361,-544 1361,4 -4,4"/>
<!-- [root] google_compute_firewall.rules (expand) -->
<g id="node1" class="node">
<title>[root] google_compute_firewall.rules (expand)</title>
<polygon fill="none" stroke="black" points="367.5,-252 134.5,-252 134.5,-216 367.5,-216 367.5,-252"/>
<text text-anchor="middle" x="251" y="-230.3" font-family="Times,serif" font-size="14.00">google_compute_firewall.rules</text>
</g>
<!-- [root] google_compute_network.vpc_network (expand) -->
<g id="node3" class="node">
<title>[root] google_compute_network.vpc_network (expand)</title>
<polygon fill="none" stroke="black" points="720,-180 428,-180 428,-144 720,-144 720,-180"/>
<text text-anchor="middle" x="574" y="-158.3" font-family="Times,serif" font-size="14.00">google_compute_network.vpc_network</text>
</g>
<!-- [root] google_compute_firewall.rules (expand)&#45;&gt;[root] google_compute_network.vpc_network (expand) -->
<g id="edge1" class="edge">
<title>[root] google_compute_firewall.rules (expand)&#45;&gt;[root] google_compute_network.vpc_network (expand)</title>
<path fill="none" stroke="black" d="M329.6,-215.97C376.68,-205.76 436.66,-192.76 485.42,-182.2"/>
<polygon fill="black" stroke="black" points="486.29,-185.59 495.33,-180.05 484.81,-178.75 486.29,-185.59"/>
</g>
<!-- [root] google_compute_instance.private&#45;vm (expand) -->
<g id="node2" class="node">
<title>[root] google_compute_instance.private&#45;vm (expand)</title>
<polygon fill="none" stroke="black" points="598.5,-396 317.5,-396 317.5,-360 598.5,-360 598.5,-396"/>
<text text-anchor="middle" x="458" y="-374.3" font-family="Times,serif" font-size="14.00">google_compute_instance.private&#45;vm</text>
</g>
<!-- [root] google_compute_subnetwork.management_subnet (expand) -->
<g id="node6" class="node">
<title>[root] google_compute_subnetwork.management_subnet (expand)</title>
<polygon fill="none" stroke="black" points="762,-252 386,-252 386,-216 762,-216 762,-252"/>
<text text-anchor="middle" x="574" y="-230.3" font-family="Times,serif" font-size="14.00">google_compute_subnetwork.management_subnet</text>
</g>
<!-- [root] google_compute_instance.private&#45;vm (expand)&#45;&gt;[root] google_compute_subnetwork.management_subnet (expand) -->
<g id="edge2" class="edge">
<title>[root] google_compute_instance.private&#45;vm (expand)&#45;&gt;[root] google_compute_subnetwork.management_subnet (expand)</title>
<path fill="none" stroke="black" d="M471.99,-359.87C492.28,-335.03 530.01,-288.85 553.46,-260.14"/>
<polygon fill="black" stroke="black" points="556.34,-262.15 559.96,-252.19 550.92,-257.72 556.34,-262.15"/>
</g>
<!-- [root] google_service_account.omar_service_account (expand) -->
<g id="node11" class="node">
<title>[root] google_service_account.omar_service_account (expand)</title>
<polygon fill="none" stroke="black" points="1332.5,-324 987.5,-324 987.5,-288 1332.5,-288 1332.5,-324"/>
<text text-anchor="middle" x="1160" y="-302.3" font-family="Times,serif" font-size="14.00">google_service_account.omar_service_account</text>
</g>
<!-- [root] google_compute_instance.private&#45;vm (expand)&#45;&gt;[root] google_service_account.omar_service_account (expand) -->
<g id="edge3" class="edge">
<title>[root] google_compute_instance.private&#45;vm (expand)&#45;&gt;[root] google_service_account.omar_service_account (expand)</title>
<path fill="none" stroke="black" d="M598.52,-361C601.71,-360.66 604.87,-360.33 608,-360 731.15,-347.11 869.88,-333.8 977.45,-323.74"/>
<polygon fill="black" stroke="black" points="977.81,-327.22 987.44,-322.8 977.15,-320.25 977.81,-327.22"/>
</g>
<!-- [root] provider[&quot;registry.terraform.io/hashicorp/google&quot;] -->
<g id="node12" class="node">
<title>[root] provider[&quot;registry.terraform.io/hashicorp/google&quot;]</title>
<polygon fill="none" stroke="black" points="868,-108 524.47,-90 868,-72 1211.53,-90 868,-108"/>
<text text-anchor="middle" x="868" y="-86.3" font-family="Times,serif" font-size="14.00">provider[&quot;registry.terraform.io/hashicorp/google&quot;]</text>
</g>
<!-- [root] google_compute_network.vpc_network (expand)&#45;&gt;[root] provider[&quot;registry.terraform.io/hashicorp/google&quot;] -->
<g id="edge4" class="edge">
<title>[root] google_compute_network.vpc_network (expand)&#45;&gt;[root] provider[&quot;registry.terraform.io/hashicorp/google&quot;]</title>
<path fill="none" stroke="black" d="M645.54,-143.97C692.26,-132.84 752.92,-118.4 799.09,-107.41"/>
<polygon fill="black" stroke="black" points="800.1,-110.77 809.01,-105.04 798.47,-103.96 800.1,-110.77"/>
</g>
<!-- [root] google_compute_router.router (expand) -->
<g id="node4" class="node">
<title>[root] google_compute_router.router (expand)</title>
<polygon fill="none" stroke="black" points="232,-324 0,-324 0,-288 232,-288 232,-324"/>
<text text-anchor="middle" x="116" y="-302.3" font-family="Times,serif" font-size="14.00">google_compute_router.router</text>
</g>
<!-- [root] google_compute_router.router (expand)&#45;&gt;[root] google_compute_network.vpc_network (expand) -->
<g id="edge5" class="edge">
<title>[root] google_compute_router.router (expand)&#45;&gt;[root] google_compute_network.vpc_network (expand)</title>
<path fill="none" stroke="black" d="M112.1,-287.99C108.59,-267.89 106.49,-234.82 125,-216 145.66,-194.99 296.55,-180.39 417.8,-171.91"/>
<polygon fill="black" stroke="black" points="418.21,-175.39 427.95,-171.21 417.73,-168.41 418.21,-175.39"/>
</g>
<!-- [root] google_compute_router_nat.nat (expand) -->
<g id="node5" class="node">
<title>[root] google_compute_router_nat.nat (expand)</title>
<polygon fill="none" stroke="black" points="257,-396 15,-396 15,-360 257,-360 257,-396"/>
<text text-anchor="middle" x="136" y="-374.3" font-family="Times,serif" font-size="14.00">google_compute_router_nat.nat</text>
</g>
<!-- [root] google_compute_router_nat.nat (expand)&#45;&gt;[root] google_compute_router.router (expand) -->
<g id="edge6" class="edge">
<title>[root] google_compute_router_nat.nat (expand)&#45;&gt;[root] google_compute_router.router (expand)</title>
<path fill="none" stroke="black" d="M131.06,-359.7C128.83,-351.9 126.15,-342.51 123.67,-333.83"/>
<polygon fill="black" stroke="black" points="127,-332.76 120.89,-324.1 120.27,-334.68 127,-332.76"/>
</g>
<!-- [root] google_compute_subnetwork.management_subnet (expand)&#45;&gt;[root] google_compute_network.vpc_network (expand) -->
<g id="edge7" class="edge">
<title>[root] google_compute_subnetwork.management_subnet (expand)&#45;&gt;[root] google_compute_network.vpc_network (expand)</title>
<path fill="none" stroke="black" d="M574,-215.7C574,-207.98 574,-198.71 574,-190.11"/>
<polygon fill="black" stroke="black" points="577.5,-190.1 574,-180.1 570.5,-190.1 577.5,-190.1"/>
</g>
<!-- [root] google_compute_subnetwork.restricted_subnet (expand) -->
<g id="node7" class="node">
<title>[root] google_compute_subnetwork.restricted_subnet (expand)</title>
<polygon fill="none" stroke="black" points="1133.5,-252 780.5,-252 780.5,-216 1133.5,-216 1133.5,-252"/>
<text text-anchor="middle" x="957" y="-230.3" font-family="Times,serif" font-size="14.00">google_compute_subnetwork.restricted_subnet</text>
</g>
<!-- [root] google_compute_subnetwork.restricted_subnet (expand)&#45;&gt;[root] google_compute_network.vpc_network (expand) -->
<g id="edge8" class="edge">
<title>[root] google_compute_subnetwork.restricted_subnet (expand)&#45;&gt;[root] google_compute_network.vpc_network (expand)</title>
<path fill="none" stroke="black" d="M863.8,-215.97C807.39,-205.66 735.36,-192.49 677.23,-181.87"/>
<polygon fill="black" stroke="black" points="677.75,-178.41 667.29,-180.05 676.5,-185.29 677.75,-178.41"/>
</g>
<!-- [root] google_container_cluster.my_cluster (expand) -->
<g id="node8" class="node">
<title>[root] google_container_cluster.my_cluster (expand)</title>
<polygon fill="none" stroke="black" points="964.5,-324 689.5,-324 689.5,-288 964.5,-288 964.5,-324"/>
<text text-anchor="middle" x="827" y="-302.3" font-family="Times,serif" font-size="14.00">google_container_cluster.my_cluster</text>
</g>
<!-- [root] google_container_cluster.my_cluster (expand)&#45;&gt;[root] google_compute_subnetwork.management_subnet (expand) -->
<g id="edge9" class="edge">
<title>[root] google_container_cluster.my_cluster (expand)&#45;&gt;[root] google_compute_subnetwork.management_subnet (expand)</title>
<path fill="none" stroke="black" d="M765.43,-287.97C729.31,-277.97 683.51,-265.3 645.76,-254.85"/>
<polygon fill="black" stroke="black" points="646.41,-251.4 635.84,-252.11 644.55,-258.15 646.41,-251.4"/>
</g>
<!-- [root] google_container_cluster.my_cluster (expand)&#45;&gt;[root] google_compute_subnetwork.restricted_subnet (expand) -->
<g id="edge10" class="edge">
<title>[root] google_container_cluster.my_cluster (expand)&#45;&gt;[root] google_compute_subnetwork.restricted_subnet (expand)</title>
<path fill="none" stroke="black" d="M858.8,-287.88C876.11,-278.55 897.72,-266.92 916.26,-256.94"/>
<polygon fill="black" stroke="black" points="917.93,-260.01 925.08,-252.19 914.61,-253.85 917.93,-260.01"/>
</g>
<!-- [root] google_container_node_pool.primary_preemptible_nodes (expand) -->
<g id="node9" class="node">
<title>[root] google_container_node_pool.primary_preemptible_nodes (expand)</title>
<polygon fill="none" stroke="black" points="1037,-396 617,-396 617,-360 1037,-360 1037,-396"/>
<text text-anchor="middle" x="827" y="-374.3" font-family="Times,serif" font-size="14.00">google_container_node_pool.primary_preemptible_nodes</text>
</g>
<!-- [root] google_container_node_pool.primary_preemptible_nodes (expand)&#45;&gt;[root] google_container_cluster.my_cluster (expand) -->
<g id="edge11" class="edge">
<title>[root] google_container_node_pool.primary_preemptible_nodes (expand)&#45;&gt;[root] google_container_cluster.my_cluster (expand)</title>
<path fill="none" stroke="black" d="M827,-359.7C827,-351.98 827,-342.71 827,-334.11"/>
<polygon fill="black" stroke="black" points="830.5,-334.1 827,-324.1 823.5,-334.1 830.5,-334.1"/>
</g>
<!-- [root] google_container_node_pool.primary_preemptible_nodes (expand)&#45;&gt;[root] google_service_account.omar_service_account (expand) -->
<g id="edge12" class="edge">
<title>[root] google_container_node_pool.primary_preemptible_nodes (expand)&#45;&gt;[root] google_service_account.omar_service_account (expand)</title>
<path fill="none" stroke="black" d="M908.04,-359.97C956.68,-349.74 1018.67,-336.71 1068.99,-326.13"/>
<polygon fill="black" stroke="black" points="1069.82,-329.53 1078.89,-324.05 1068.38,-322.68 1069.82,-329.53"/>
</g>
<!-- [root] google_project_iam_binding.project_iam (expand) -->
<g id="node10" class="node">
<title>[root] google_project_iam_binding.project_iam (expand)</title>
<polygon fill="none" stroke="black" points="1357,-396 1055,-396 1055,-360 1357,-360 1357,-396"/>
<text text-anchor="middle" x="1206" y="-374.3" font-family="Times,serif" font-size="14.00">google_project_iam_binding.project_iam</text>
</g>
<!-- [root] google_project_iam_binding.project_iam (expand)&#45;&gt;[root] google_service_account.omar_service_account (expand) -->
<g id="edge13" class="edge">
<title>[root] google_project_iam_binding.project_iam (expand)&#45;&gt;[root] google_service_account.omar_service_account (expand)</title>
<path fill="none" stroke="black" d="M1194.63,-359.7C1189.28,-351.56 1182.8,-341.69 1176.89,-332.7"/>
<polygon fill="black" stroke="black" points="1179.66,-330.54 1171.24,-324.1 1173.81,-334.38 1179.66,-330.54"/>
</g>
<!-- [root] google_service_account.omar_service_account (expand)&#45;&gt;[root] provider[&quot;registry.terraform.io/hashicorp/google&quot;] -->
<g id="edge14" class="edge">
<title>[root] google_service_account.omar_service_account (expand)&#45;&gt;[root] provider[&quot;registry.terraform.io/hashicorp/google&quot;]</title>
<path fill="none" stroke="black" d="M1161.15,-287.7C1161.53,-268.23 1159.24,-236.65 1143,-216 1095.38,-155.45 1011.86,-123.23 949.33,-106.77"/>
<polygon fill="black" stroke="black" points="950.03,-103.33 939.48,-104.26 948.31,-110.12 950.03,-103.33"/>
</g>
<!-- [root] var.my&#45;project&#45;id -->
<g id="node13" class="node">
<title>[root] var.my&#45;project&#45;id</title>
<polygon fill="none" stroke="black" points="858.5,-36 727.5,-36 727.5,0 864.5,0 864.5,-30 858.5,-36"/>
<polyline fill="none" stroke="black" points="858.5,-36 858.5,-30 "/>
<polyline fill="none" stroke="black" points="864.5,-30 858.5,-30 "/>
<text text-anchor="middle" x="796" y="-14.3" font-family="Times,serif" font-size="14.00">var.my&#45;project&#45;id</text>
</g>
<!-- [root] provider[&quot;registry.terraform.io/hashicorp/google&quot;]&#45;&gt;[root] var.my&#45;project&#45;id -->
<g id="edge20" class="edge">
<title>[root] provider[&quot;registry.terraform.io/hashicorp/google&quot;]&#45;&gt;[root] var.my&#45;project&#45;id</title>
<path fill="none" stroke="black" d="M851.3,-72.76C842.3,-64.01 831.01,-53.03 820.98,-43.28"/>
<polygon fill="black" stroke="black" points="823.22,-40.59 813.61,-36.12 818.34,-45.6 823.22,-40.59"/>
</g>
<!-- [root] var.my_region -->
<g id="node14" class="node">
<title>[root] var.my_region</title>
<polygon fill="none" stroke="black" points="993.5,-36 882.5,-36 882.5,0 999.5,0 999.5,-30 993.5,-36"/>
<polyline fill="none" stroke="black" points="993.5,-36 993.5,-30 "/>
<polyline fill="none" stroke="black" points="999.5,-30 993.5,-30 "/>
<text text-anchor="middle" x="941" y="-14.3" font-family="Times,serif" font-size="14.00">var.my_region</text>
</g>
<!-- [root] provider[&quot;registry.terraform.io/hashicorp/google&quot;]&#45;&gt;[root] var.my_region -->
<g id="edge21" class="edge">
<title>[root] provider[&quot;registry.terraform.io/hashicorp/google&quot;]&#45;&gt;[root] var.my_region</title>
<path fill="none" stroke="black" d="M884.93,-72.76C894.06,-64.01 905.51,-53.03 915.68,-43.28"/>
<polygon fill="black" stroke="black" points="918.35,-45.57 923.14,-36.12 913.5,-40.52 918.35,-45.57"/>
</g>
<!-- [root] provider[&quot;registry.terraform.io/hashicorp/google&quot;] (close) -->
<g id="node15" class="node">
<title>[root] provider[&quot;registry.terraform.io/hashicorp/google&quot;] (close)</title>
<ellipse fill="none" stroke="black" cx="458" cy="-450" rx="304.65" ry="18"/>
<text text-anchor="middle" x="458" y="-446.3" font-family="Times,serif" font-size="14.00">[root] provider[&quot;registry.terraform.io/hashicorp/google&quot;] (close)</text>
</g>
<!-- [root] provider[&quot;registry.terraform.io/hashicorp/google&quot;] (close)&#45;&gt;[root] google_compute_firewall.rules (expand) -->
<g id="edge15" class="edge">
<title>[root] provider[&quot;registry.terraform.io/hashicorp/google&quot;] (close)&#45;&gt;[root] google_compute_firewall.rules (expand)</title>
<path fill="none" stroke="black" d="M371.2,-432.68C348.29,-424.81 325.19,-413.18 308,-396 271.32,-359.34 258.15,-297.62 253.49,-262.2"/>
<polygon fill="black" stroke="black" points="256.95,-261.62 252.3,-252.1 250,-262.44 256.95,-261.62"/>
</g>
<!-- [root] provider[&quot;registry.terraform.io/hashicorp/google&quot;] (close)&#45;&gt;[root] google_compute_instance.private&#45;vm (expand) -->
<g id="edge16" class="edge">
<title>[root] provider[&quot;registry.terraform.io/hashicorp/google&quot;] (close)&#45;&gt;[root] google_compute_instance.private&#45;vm (expand)</title>
<path fill="none" stroke="black" d="M458,-431.7C458,-423.98 458,-414.71 458,-406.11"/>
<polygon fill="black" stroke="black" points="461.5,-406.1 458,-396.1 454.5,-406.1 461.5,-406.1"/>
</g>
<!-- [root] provider[&quot;registry.terraform.io/hashicorp/google&quot;] (close)&#45;&gt;[root] google_compute_router_nat.nat (expand) -->
<g id="edge17" class="edge">
<title>[root] provider[&quot;registry.terraform.io/hashicorp/google&quot;] (close)&#45;&gt;[root] google_compute_router_nat.nat (expand)</title>
<path fill="none" stroke="black" d="M382.1,-432.5C334.87,-422.23 273.94,-408.99 224.51,-398.24"/>
<polygon fill="black" stroke="black" points="224.99,-394.76 214.47,-396.06 223.5,-401.6 224.99,-394.76"/>
</g>
<!-- [root] provider[&quot;registry.terraform.io/hashicorp/google&quot;] (close)&#45;&gt;[root] google_container_node_pool.primary_preemptible_nodes (expand) -->
<g id="edge18" class="edge">
<title>[root] provider[&quot;registry.terraform.io/hashicorp/google&quot;] (close)&#45;&gt;[root] google_container_node_pool.primary_preemptible_nodes (expand)</title>
<path fill="none" stroke="black" d="M544.05,-432.68C598.79,-422.29 669.89,-408.8 727.13,-397.95"/>
<polygon fill="black" stroke="black" points="728.11,-401.32 737.28,-396.02 726.8,-394.45 728.11,-401.32"/>
</g>
<!-- [root] provider[&quot;registry.terraform.io/hashicorp/google&quot;] (close)&#45;&gt;[root] google_project_iam_binding.project_iam (expand) -->
<g id="edge19" class="edge">
<title>[root] provider[&quot;registry.terraform.io/hashicorp/google&quot;] (close)&#45;&gt;[root] google_project_iam_binding.project_iam (expand)</title>
<path fill="none" stroke="black" d="M622.81,-434.85C738.08,-424.79 895.91,-410.67 1044.6,-396.13"/>
<polygon fill="black" stroke="black" points="1045.23,-399.58 1054.84,-395.13 1044.55,-392.62 1045.23,-399.58"/>
</g>
<!-- [root] root -->
<g id="node16" class="node">
<title>[root] root</title>
<ellipse fill="none" stroke="black" cx="458" cy="-522" rx="58.49" ry="18"/>
<text text-anchor="middle" x="458" y="-518.3" font-family="Times,serif" font-size="14.00">[root] root</text>
</g>
<!-- [root] root&#45;&gt;[root] provider[&quot;registry.terraform.io/hashicorp/google&quot;] (close) -->
<g id="edge22" class="edge">
<title>[root] root&#45;&gt;[root] provider[&quot;registry.terraform.io/hashicorp/google&quot;] (close)</title>
<path fill="none" stroke="black" d="M458,-503.7C458,-495.98 458,-486.71 458,-478.11"/>
<polygon fill="black" stroke="black" points="461.5,-478.1 458,-468.1 454.5,-478.1 461.5,-478.1"/>
</g>
</g>
</svg>
